<svg width="184" height="138" viewBox="0 0 184 138" fill="none" xmlns="http://www.w3.org/2000/svg">
<g clip-path="url(#clip0_146_644)">
<path d="M31.54 39.65H61.46L76.66 13.31C77.9 11.15 80.29 9.83 82.83 10C85.32 10.15 87.54 11.71 88.52 14.04L102.49 46.88L103.83 43.72V43.7C104.87 41.23 107.3 39.63 109.96 39.63C110.06 39.63 110.16 39.63 110.26 39.64H152V4C151.09 1.66 148.82 0 146.16 0H36.86C34.19 0 31.91 1.67 31 4.01V39.68C31.18 39.66 31.36 39.65 31.54 39.65Z" fill="#0A7B73"/>
<path d="M114.36 52.91L108.65 66.44C107.63 68.93 105.19 70.53 102.53 70.53C102.22 70.53 101.91 70.5 101.61 70.44C99.33 70.13 97.35 68.65 96.42 66.48L81.52 31.45L71 49.68C69.85 51.59 67.74 52.92 65.3 52.92H31V88.94C31.91 91.29 34.19 92.96 36.86 92.96H146.16C148.82 92.96 151.09 91.29 152 88.95V52.91H114.36Z" fill="#0A7B73"/>
</g>
<path d="M175.33 137.02C173.702 137.02 172.261 136.679 171.007 135.997C169.776 135.293 168.808 134.314 168.104 133.06C167.422 131.785 167.081 130.289 167.081 128.573V128.177C167.081 126.462 167.422 124.977 168.104 123.723C168.786 122.447 169.743 121.468 170.974 120.787C172.206 120.083 173.636 119.731 175.264 119.731C176.869 119.731 178.266 120.094 179.454 120.82C180.642 121.523 181.565 122.513 182.225 123.789C182.885 125.043 183.215 126.506 183.215 128.177V129.596H171.304C171.348 130.718 171.766 131.631 172.558 132.334C173.35 133.038 174.318 133.39 175.462 133.39C176.627 133.39 177.485 133.137 178.035 132.631C178.585 132.126 179.003 131.565 179.289 130.949L182.687 132.73C182.379 133.302 181.928 133.929 181.334 134.611C180.763 135.271 179.993 135.843 179.025 136.327C178.057 136.789 176.825 137.02 175.33 137.02ZM171.337 126.495H178.992C178.904 125.549 178.519 124.79 177.837 124.218C177.177 123.646 176.308 123.36 175.231 123.36C174.109 123.36 173.218 123.646 172.558 124.218C171.898 124.79 171.491 125.549 171.337 126.495Z" fill="#0A7B73"/>
<path d="M147.542 136.558V120.193H151.633V122.337H152.227C152.491 121.765 152.986 121.227 153.712 120.721C154.438 120.193 155.538 119.929 157.011 119.929C158.287 119.929 159.398 120.226 160.344 120.82C161.311 121.392 162.059 122.194 162.587 123.228C163.115 124.24 163.379 125.428 163.379 126.792V136.558H159.222V127.121C159.222 125.89 158.914 124.966 158.298 124.35C157.704 123.734 156.846 123.426 155.725 123.426C154.449 123.426 153.459 123.855 152.755 124.713C152.051 125.549 151.699 126.726 151.699 128.243V136.558H147.542Z" fill="#0A7B73"/>
<path d="M134.087 137.02C131.184 137.02 128.874 136.228 127.159 134.644C125.443 133.038 124.585 130.751 124.585 127.781V122.238C124.585 119.269 125.443 116.992 127.159 115.409C128.874 113.803 131.184 113 134.087 113C136.991 113 139.3 113.803 141.016 115.409C142.732 116.992 143.59 119.269 143.59 122.238V127.781C143.59 130.751 142.732 133.038 141.016 134.644C139.3 136.228 136.991 137.02 134.087 137.02ZM134.087 133.126C135.715 133.126 136.98 132.653 137.882 131.708C138.783 130.762 139.234 129.497 139.234 127.913V122.106C139.234 120.523 138.783 119.258 137.882 118.312C136.98 117.366 135.715 116.893 134.087 116.893C132.482 116.893 131.217 117.366 130.293 118.312C129.391 119.258 128.94 120.523 128.94 122.106V127.913C128.94 129.497 129.391 130.762 130.293 131.708C131.217 132.653 132.482 133.126 134.087 133.126Z" fill="#0A7B73"/>
<path d="M116.481 136.558V113.462H120.638V136.558H116.481Z" fill="#0A7B73"/>
<path d="M102.487 137.02C101.322 137.02 100.277 136.822 99.353 136.426C98.4292 136.008 97.6923 135.414 97.1424 134.644C96.6145 133.852 96.3506 132.895 96.3506 131.774C96.3506 130.652 96.6145 129.717 97.1424 128.969C97.6923 128.199 98.4402 127.627 99.386 127.253C100.354 126.857 101.454 126.66 102.685 126.66H107.173V125.736C107.173 124.966 106.931 124.339 106.447 123.855C105.963 123.349 105.193 123.096 104.137 123.096C103.103 123.096 102.333 123.338 101.828 123.822C101.322 124.284 100.992 124.889 100.838 125.637L97.0105 124.35C97.2744 123.514 97.6923 122.755 98.2642 122.073C98.8581 121.369 99.639 120.809 100.607 120.391C101.597 119.951 102.795 119.731 104.203 119.731C106.359 119.731 108.063 120.27 109.317 121.347C110.571 122.425 111.198 123.987 111.198 126.033V132.137C111.198 132.796 111.506 133.126 112.122 133.126H113.441V136.558H110.67C109.856 136.558 109.185 136.36 108.657 135.964C108.129 135.568 107.865 135.04 107.865 134.38V134.347H107.239C107.151 134.611 106.953 134.963 106.645 135.403C106.337 135.821 105.853 136.195 105.193 136.525C104.533 136.855 103.631 137.02 102.487 137.02ZM103.213 133.654C104.379 133.654 105.325 133.335 106.051 132.697C106.799 132.038 107.173 131.169 107.173 130.091V129.761H102.982C102.213 129.761 101.608 129.926 101.168 130.256C100.728 130.586 100.508 131.048 100.508 131.642C100.508 132.235 100.739 132.719 101.201 133.093C101.663 133.467 102.334 133.654 103.213 133.654Z" fill="#0A7B73"/>
<path d="M85.7617 137.02C84.178 137.02 82.7372 136.69 81.4395 136.03C80.1637 135.37 79.1519 134.413 78.404 133.159C77.6562 131.906 77.2822 130.388 77.2822 128.606V128.144C77.2822 126.363 77.6562 124.845 78.404 123.591C79.1519 122.337 80.1637 121.38 81.4395 120.721C82.7372 120.061 84.178 119.731 85.7617 119.731C87.3234 119.731 88.6652 120.006 89.7869 120.556C90.9087 121.106 91.8106 121.864 92.4925 122.832C93.1963 123.778 93.6582 124.856 93.8782 126.066L89.8529 126.923C89.765 126.264 89.567 125.67 89.259 125.142C88.9511 124.614 88.5112 124.196 87.9393 123.888C87.3894 123.58 86.6965 123.426 85.8607 123.426C85.0248 123.426 84.266 123.613 83.5841 123.987C82.9242 124.339 82.3963 124.878 82.0004 125.604C81.6264 126.308 81.4395 127.176 81.4395 128.21V128.54C81.4395 129.574 81.6264 130.454 82.0004 131.18C82.3963 131.884 82.9242 132.422 83.5841 132.796C84.266 133.148 85.0248 133.324 85.8607 133.324C87.1144 133.324 88.0603 133.005 88.6982 132.367C89.358 131.708 89.776 130.85 89.9519 129.794L93.9772 130.751C93.6912 131.917 93.1963 132.983 92.4925 133.951C91.8106 134.897 90.9087 135.645 89.7869 136.195C88.6652 136.745 87.3234 137.02 85.7617 137.02Z" fill="#0A7B73"/>
<path d="M69.3097 136.558V120.193H73.4669V136.558H69.3097ZM71.3883 118.279C70.6405 118.279 70.0026 118.037 69.4747 117.553C68.9688 117.069 68.7158 116.431 68.7158 115.64C68.7158 114.848 68.9688 114.21 69.4747 113.726C70.0026 113.242 70.6405 113 71.3883 113C72.1582 113 72.7961 113.242 73.302 113.726C73.8079 114.21 74.0608 114.848 74.0608 115.64C74.0608 116.431 73.8079 117.069 73.302 117.553C72.7961 118.037 72.1582 118.279 71.3883 118.279Z" fill="#0A7B73"/>
<path d="M54.8687 137.02C53.5709 137.02 52.3501 136.701 51.2063 136.063C50.0846 135.403 49.1827 134.446 48.5008 133.192C47.819 131.939 47.478 130.421 47.478 128.639V128.111C47.478 126.33 47.819 124.812 48.5008 123.558C49.1827 122.304 50.0846 121.359 51.2063 120.721C52.3281 120.061 53.5489 119.731 54.8687 119.731C55.8585 119.731 56.6834 119.852 57.3432 120.094C58.0251 120.314 58.575 120.6 58.9929 120.952C59.4109 121.304 59.7298 121.677 59.9498 122.073H60.5436V113.462H64.7009V136.558H60.6096V134.578H60.0157C59.6418 135.194 59.0589 135.755 58.2671 136.261C57.4972 136.767 56.3644 137.02 54.8687 137.02ZM56.1225 133.39C57.3982 133.39 58.465 132.983 59.3229 132.17C60.1807 131.334 60.6096 130.124 60.6096 128.54V128.21C60.6096 126.627 60.1807 125.428 59.3229 124.614C58.487 123.778 57.4202 123.36 56.1225 123.36C54.8467 123.36 53.7799 123.778 52.922 124.614C52.0642 125.428 51.6353 126.627 51.6353 128.21V128.54C51.6353 130.124 52.0642 131.334 52.922 132.17C53.7799 132.983 54.8467 133.39 56.1225 133.39Z" fill="#0A7B73"/>
<path d="M36.684 137.02C35.0563 137.02 33.6156 136.679 32.3618 135.997C31.1301 135.293 30.1622 134.314 29.4584 133.06C28.7765 131.785 28.4355 130.289 28.4355 128.573V128.177C28.4355 126.462 28.7765 124.977 29.4584 123.723C30.1402 122.447 31.0971 121.468 32.3288 120.787C33.5606 120.083 34.9904 119.731 36.6181 119.731C38.2238 119.731 39.6205 120.094 40.8083 120.82C41.9961 121.523 42.9199 122.513 43.5798 123.789C44.2397 125.043 44.5696 126.506 44.5696 128.177V129.596H32.6588C32.7028 130.718 33.1207 131.631 33.9125 132.334C34.7044 133.038 35.6722 133.39 36.816 133.39C37.9818 133.39 38.8397 133.137 39.3896 132.631C39.9395 132.126 40.3574 131.565 40.6433 130.949L44.0417 132.73C43.7338 133.302 43.2828 133.929 42.6889 134.611C42.1171 135.271 41.3472 135.843 40.3794 136.327C39.4115 136.789 38.1798 137.02 36.684 137.02ZM32.6918 126.495H40.3464C40.2584 125.549 39.8735 124.79 39.1916 124.218C38.5317 123.646 37.6629 123.36 36.5851 123.36C35.4633 123.36 34.5724 123.646 33.9125 124.218C33.2527 124.79 32.8457 125.549 32.6918 126.495Z" fill="#0A7B73"/>
<path d="M0 136.558V113.462H8.08353L12.0758 133.588H12.6697L16.662 113.462H24.7455V136.558H20.5223V116.662H19.9284L15.9691 136.558H8.7764L4.81712 116.662H4.22323V136.558H0Z" fill="#0A7B73"/>
<defs>
<clipPath id="clip0_146_644">
<rect width="121" height="92.96" fill="white" transform="translate(31)"/>
</clipPath>
</defs>
</svg>
